<svg xmlns:xlink="http://www.w3.org/1999/xlink" width="516.5" xmlns="http://www.w3.org/2000/svg" height="512" id="screenshot-55fdf9ce-bb42-8009-8001-c35ece5cff75" viewBox="0 0 516.5 512" style="-webkit-print-color-adjust: exact;" fill="none" version="1.1"><g id="shape-55fdf9ce-bb42-8009-8001-c35ece5cff75" rx="0" ry="0"><g id="shape-55fdf9ce-bb42-8009-8001-c346a1a8f16d"><g id="fills-55fdf9ce-bb42-8009-8001-c346a1a8f16d"><rect rx="20" ry="20" x="0" y="0" transform="matrix(1,0,0,1,0.000005,-0.000005)" width="512" height="512" style="fill: rgb(48, 48, 48); fill-opacity: 1;"/></g></g><g id="shape-55fdf9ce-bb42-8009-8001-c3477e3c3348"><defs><filter id="filter_c174c000-3d90-8017-8001-c38a14c2cf73" x="-0.07951961954669984" y="-3053.553390593274" width="1.1902892390933997" height="7308.106781186547" filterUnits="objectBoundingBox" color-interpolation-filters="sRGB"><feFlood flood-opacity="0" result="BackgroundImageFix"/><feColorMatrix in="SourceAlpha" type="matrix" values="0 0 0 0 0 0 0 0 0 0 0 0 0 0 0 0 0 0 127 0"/><feOffset dx="4" dy="4"/><feGaussianBlur stdDeviation="2"/><feColorMatrix type="matrix" values="0 0 0 0 0 0 0 0 0 0 0 0 0 0 0 0 0 0 0.2 0"/><feBlend mode="normal" in2="BackgroundImageFix" result="filter_55fdf9ce-bb42-8009-8001-c3479c2884dc"/><feBlend mode="normal" in="SourceGraphic" in2="filter_55fdf9ce-bb42-8009-8001-c3479c2884dc" result="shape"/></filter><filter id="filter_shadow_c174c000-3d90-8017-8001-c38a14c2cf73" x="-0.07951961954669984" y="-3053.553390593274" width="1.1902892390933997" height="7308.106781186547" filterUnits="objectBoundingBox" color-interpolation-filters="sRGB"><feFlood flood-opacity="0" result="BackgroundImageFix"/><feColorMatrix in="SourceAlpha" type="matrix" values="0 0 0 0 0 0 0 0 0 0 0 0 0 0 0 0 0 0 127 0"/><feOffset dx="4" dy="4"/><feGaussianBlur stdDeviation="2"/><feColorMatrix type="matrix" values="0 0 0 0 0 0 0 0 0 0 0 0 0 0 0 0 0 0 0.2 0"/><feBlend mode="normal" in2="BackgroundImageFix" result="filter_55fdf9ce-bb42-8009-8001-c3479c2884dc"/><feBlend mode="normal" in="SourceGraphic" in2="filter_55fdf9ce-bb42-8009-8001-c3479c2884dc" result="shape"/></filter></defs><g id="fills-55fdf9ce-bb42-8009-8001-c3477e3c3348"><path rx="0" ry="0" d="M74,349L458,349" filter="url(#filter_c174c000-3d90-8017-8001-c38a14c2cf73)" style="fill: rgb(177, 178, 181); fill-opacity: 1;"/></g><g id="strokes-55fdf9ce-bb42-8009-8001-c3477e3c3348"><g class="stroke-shape"><path rx="0" ry="0" d="M74,349L458,349" style="fill: none; stroke-width: 5; stroke: rgb(174, 174, 174); stroke-opacity: 1; stroke-dasharray: 15, 15;"/></g></g></g><g id="shape-55fdf9ce-bb42-8009-8001-c357785d9cc4"><g id="fills-55fdf9ce-bb42-8009-8001-c357785d9cc4"><path rx="0" ry="0" d="M400,432L400,48" style="opacity: 0.9; fill: rgb(177, 178, 181); fill-opacity: 1;"/></g><g id="strokes-55fdf9ce-bb42-8009-8001-c357785d9cc4"><g class="stroke-shape"><path rx="0" ry="0" d="M400,432L400,48" style="opacity: 0.9; fill: none; stroke-width: 5; stroke: rgb(174, 174, 174); stroke-opacity: 1; stroke-dasharray: 15, 15;"/></g></g></g><g id="shape-55fdf9ce-bb42-8009-8001-c357785dd152"><g id="fills-55fdf9ce-bb42-8009-8001-c357785dd152"><path rx="0" ry="0" d="M315,432L315,48" style="opacity: 0.9; fill: rgb(177, 178, 181); fill-opacity: 1;"/></g><g id="strokes-55fdf9ce-bb42-8009-8001-c357785dd152"><g class="stroke-shape"><path rx="0" ry="0" d="M315,432L315,48" style="opacity: 0.9; fill: none; stroke-width: 5; stroke: rgb(174, 174, 174); stroke-opacity: 1; stroke-dasharray: 15, 15;"/></g></g></g><g id="shape-55fdf9ce-bb42-8009-8001-c357785dd153"><g id="fills-55fdf9ce-bb42-8009-8001-c357785dd153"><path rx="0" ry="0" d="M230,433L230,49" style="opacity: 0.9; fill: rgb(177, 178, 181); fill-opacity: 1;"/></g><g id="strokes-55fdf9ce-bb42-8009-8001-c357785dd153"><g class="stroke-shape"><path rx="0" ry="0" d="M230,433L230,49" style="opacity: 0.9; fill: none; stroke-width: 5; stroke: rgb(174, 174, 174); stroke-opacity: 1; stroke-dasharray: 15, 15;"/></g></g></g><g id="shape-55fdf9ce-bb42-8009-8001-c357785dd154"><g id="fills-55fdf9ce-bb42-8009-8001-c357785dd154"><path rx="0" ry="0" d="M147,431L147,47" style="opacity: 0.9; fill: rgb(177, 178, 181); fill-opacity: 1;"/></g><g id="strokes-55fdf9ce-bb42-8009-8001-c357785dd154"><g class="stroke-shape"><path rx="0" ry="0" d="M147,431L147,47" style="opacity: 0.9; fill: none; stroke-width: 5; stroke: rgb(174, 174, 174); stroke-opacity: 1; stroke-dasharray: 15, 15;"/></g></g></g><g id="shape-55fdf9ce-bb42-8009-8001-c348502d84a1"><g id="fills-55fdf9ce-bb42-8009-8001-c348502d84a1"><path rx="0" ry="0" d="M74,256L458,256" style="fill: rgb(177, 178, 181); fill-opacity: 1;"/></g><g id="strokes-55fdf9ce-bb42-8009-8001-c348502d84a1"><g class="stroke-shape"><path rx="0" ry="0" d="M74,256L458,256" style="fill: none; stroke-width: 5; stroke: rgb(174, 174, 174); stroke-opacity: 1; stroke-dasharray: 15, 15;"/></g></g></g><g id="shape-55fdf9ce-bb42-8009-8001-c34879ac6753"><g id="fills-55fdf9ce-bb42-8009-8001-c34879ac6753"><path rx="0" ry="0" d="M72,163L456,163" style="fill: rgb(177, 178, 181); fill-opacity: 1;"/></g><g id="strokes-55fdf9ce-bb42-8009-8001-c34879ac6753"><g class="stroke-shape"><path rx="0" ry="0" d="M72,163L456,163" style="fill: none; stroke-width: 5; stroke: rgb(174, 174, 174); stroke-opacity: 1; stroke-dasharray: 15, 15;"/></g></g></g><g id="shape-6550b1a2-5b6b-80ee-8001-c387e0196ea6"><g id="fills-6550b1a2-5b6b-80ee-8001-c387e0196ea6"><path rx="0" ry="0" d="M63,440C63,440,122,56,166,81C200.375,100.531,269.547,285.862,324.13,334.728C332.369,342.104,352.596,365.283,378.907,334.728C390.859,320.848,399.753,258.124,415.74,220.651C429.846,187.587,451.688,178.5,454.5,178.5"/></g><g id="strokes-6550b1a2-5b6b-80ee-8001-c387e0196ea6"><g class="stroke-shape"><path rx="0" ry="0" d="M63,440C63,440,122,56,166,81C200.375,100.531,269.547,285.862,324.13,334.728C332.369,342.104,352.596,365.283,378.907,334.728C390.859,320.848,399.753,258.124,415.74,220.651C429.846,187.587,451.688,178.5,454.5,178.5" style="fill: none; stroke-width: 40; stroke: rgb(255, 0, 0); stroke-opacity: 1; stroke-linecap: round;"/></g></g></g><g id="shape-55fdf9ce-bb42-8009-8001-c3488921df4d"><g id="fills-55fdf9ce-bb42-8009-8001-c3488921df4d"><path rx="0" ry="0" d="M74,90L458,90" style="fill: rgb(177, 178, 181); fill-opacity: 1;"/></g><g id="strokes-55fdf9ce-bb42-8009-8001-c3488921df4d"><g class="stroke-shape"><path rx="0" ry="0" d="M74,90L458,90" style="fill: none; stroke-width: 5; stroke: rgb(177, 178, 181); stroke-opacity: 1; stroke-dasharray: 15, 15;"/></g></g></g><g id="shape-6550b1a2-5b6b-80ee-8001-c38626a391b4"><g id="fills-6550b1a2-5b6b-80ee-8001-c38626a391b4"><path rx="0" ry="0" d="M68.4,233.81C94.697,155.982,153.297,372.623,170.678,373.135C218.731,374.549,202.844,342.469,242.5,270.5C296.5,172.5,293,186,354,167C415,148,451,69,451,69"/></g><g id="strokes-6550b1a2-5b6b-80ee-8001-c38626a391b4"><g class="stroke-shape"><path rx="0" ry="0" d="M68.4,233.81C94.697,155.982,153.297,372.623,170.678,373.135C218.731,374.549,202.844,342.469,242.5,270.5C296.5,172.5,293,186,354,167C415,148,451,69,451,69" style="fill: none; stroke-width: 40; stroke: rgb(255, 165, 0); stroke-opacity: 1; stroke-linecap: round;"/></g></g></g><g id="shape-55fdf9ce-bb42-8009-8001-c3473c0d225f"><g id="fills-55fdf9ce-bb42-8009-8001-c3473c0d225f"><rect rx="20.000000000000007" ry="20.000000000000007" x="234.85000072418876" y="210.79999949889293" transform="matrix(0,1,-1,0,698.849998,189.15001)" width="40.000000000000014" height="466.4000015318246" style="fill: rgb(177, 178, 181); fill-opacity: 1;"/></g></g><g id="shape-55fdf9ce-bb42-8009-8001-c35a2d2e7d2a"><g id="fills-55fdf9ce-bb42-8009-8001-c35a2d2e7d2a"><rect rx="19.999999586383993" ry="19.999999586383993" x="44.00000509222281" y="26.999995430823674" transform="matrix(1,0,0,1,0.000004,0.000006)" width="39.999999172767986" height="466.4000111773475" style="fill: rgb(177, 178, 181); fill-opacity: 1;"/></g></g></g></svg>